<svg width="380" height="330" viewBox="0 0 380 330" fill="none" xmlns="http://www.w3.org/2000/svg">
<rect width="380" height="330" fill="#1E1E1E"/>
<rect width="380" height="330" fill="white"/>
<path d="M49.024 159L59.136 134.904H59.328L69.408 159H65.856L58.304 139.768L60.512 138.328L52.064 159H49.024ZM54.944 150.232H63.552L64.576 152.92H54.048L54.944 150.232ZM74.3095 139.928H77.2855V145.816H80.9335V148.152H77.2855V159H74.3095V148.152H71.8775V145.816H74.3095V139.928ZM85.8095 139.928H88.7855V145.816H92.4335V148.152H88.7855V159H85.8095V148.152H83.3775V145.816H85.8095V139.928ZM102.174 159.32C100.659 159.32 99.3575 159.021 98.2695 158.424C97.1815 157.805 96.3388 156.973 95.7415 155.928C95.1655 154.861 94.8775 153.645 94.8775 152.28C94.8775 150.979 95.2082 149.795 95.8695 148.728C96.5308 147.661 97.4162 146.808 98.5255 146.168C99.6348 145.528 100.872 145.208 102.238 145.208C103.987 145.208 105.438 145.72 106.59 146.744C107.742 147.768 108.52 149.176 108.926 150.968L98.0135 154.808L97.3095 153.048L106.27 149.784L105.63 150.2C105.374 149.496 104.947 148.888 104.35 148.376C103.752 147.843 102.974 147.576 102.014 147.576C101.203 147.576 100.478 147.779 99.8375 148.184C99.1975 148.568 98.6962 149.101 98.3335 149.784C97.9708 150.467 97.7895 151.245 97.7895 152.12C97.7895 153.037 97.9815 153.848 98.3655 154.552C98.7495 155.235 99.2722 155.779 99.9335 156.184C100.616 156.568 101.384 156.76 102.238 156.76C102.814 156.76 103.368 156.653 103.902 156.44C104.456 156.227 104.968 155.949 105.438 155.608L106.814 157.816C106.152 158.264 105.406 158.627 104.574 158.904C103.763 159.181 102.963 159.32 102.174 159.32ZM115.311 145.752L115.567 148.984L115.439 148.472C115.865 147.491 116.559 146.712 117.519 146.136C118.479 145.539 119.588 145.24 120.847 145.24C122.105 145.24 123.129 145.613 123.919 146.36C124.729 147.085 125.145 148.035 125.167 149.208V159H122.159V150.264C122.137 149.539 121.924 148.952 121.519 148.504C121.135 148.035 120.527 147.8 119.695 147.8C118.927 147.8 118.233 148.013 117.615 148.44C116.996 148.867 116.505 149.453 116.143 150.2C115.801 150.947 115.631 151.811 115.631 152.792V159H112.655V145.752H115.311ZM135.718 159.32C134.502 159.32 133.393 159.032 132.39 158.456C131.409 157.859 130.63 157.027 130.054 155.96C129.478 154.872 129.19 153.624 129.19 152.216C129.19 150.744 129.489 149.485 130.086 148.44C130.705 147.395 131.537 146.595 132.582 146.04C133.627 145.485 134.801 145.208 136.102 145.208C137.147 145.208 138.139 145.432 139.078 145.88C140.038 146.328 140.785 146.947 141.318 147.736L141.19 148.792V134.232H144.134V159H141.158V155.704L141.478 156.536C140.859 157.347 140.059 158.019 139.078 158.552C138.097 159.064 136.977 159.32 135.718 159.32ZM136.646 156.792C137.435 156.792 138.139 156.653 138.758 156.376C139.377 156.077 139.889 155.672 140.294 155.16C140.699 154.648 140.987 154.04 141.158 153.336V150.84C140.987 150.2 140.678 149.645 140.23 149.176C139.803 148.685 139.281 148.301 138.662 148.024C138.065 147.725 137.393 147.576 136.646 147.576C135.835 147.576 135.089 147.779 134.406 148.184C133.745 148.568 133.211 149.101 132.806 149.784C132.401 150.467 132.198 151.256 132.198 152.152C132.198 153.027 132.401 153.816 132.806 154.52C133.211 155.203 133.755 155.757 134.438 156.184C135.121 156.589 135.857 156.792 136.646 156.792ZM154.815 159.32C153.577 159.32 152.447 159.053 151.423 158.52C150.42 157.987 149.62 157.208 149.023 156.184C148.447 155.139 148.159 153.869 148.159 152.376C148.159 150.904 148.468 149.635 149.087 148.568C149.705 147.48 150.527 146.648 151.551 146.072C152.596 145.496 153.737 145.208 154.975 145.208C156.212 145.208 157.257 145.496 158.111 146.072C158.964 146.627 159.615 147.288 160.063 148.056L159.871 148.568L160.159 145.752H162.911V159H159.935V155.544L160.255 156.312C160.169 156.525 159.977 156.803 159.679 157.144C159.401 157.464 159.017 157.795 158.527 158.136C158.057 158.477 157.513 158.765 156.895 159C156.276 159.213 155.583 159.32 154.815 159.32ZM155.615 156.856C156.361 156.856 157.033 156.717 157.631 156.44C158.228 156.163 158.719 155.779 159.103 155.288C159.508 154.776 159.785 154.168 159.935 153.464V150.872C159.764 150.232 159.465 149.677 159.039 149.208C158.612 148.717 158.1 148.344 157.503 148.088C156.905 147.811 156.244 147.672 155.519 147.672C154.729 147.672 154.004 147.864 153.343 148.248C152.681 148.632 152.148 149.165 151.743 149.848C151.359 150.531 151.167 151.331 151.167 152.248C151.167 153.101 151.369 153.88 151.775 154.584C152.18 155.288 152.724 155.843 153.407 156.248C154.089 156.653 154.825 156.856 155.615 156.856ZM170.717 145.752L170.973 148.984L170.845 148.472C171.271 147.491 171.965 146.712 172.925 146.136C173.885 145.539 174.994 145.24 176.253 145.24C177.511 145.24 178.535 145.613 179.325 146.36C180.135 147.085 180.551 148.035 180.573 149.208V159H177.565V150.264C177.543 149.539 177.33 148.952 176.925 148.504C176.541 148.035 175.933 147.8 175.101 147.8C174.333 147.8 173.639 148.013 173.021 148.44C172.402 148.867 171.911 149.453 171.549 150.2C171.207 150.947 171.037 151.811 171.037 152.792V159H168.061V145.752H170.717ZM196.5 157.784C195.903 158.253 195.188 158.627 194.356 158.904C193.524 159.181 192.692 159.32 191.86 159.32C190.41 159.32 189.14 159.032 188.052 158.456C186.964 157.88 186.111 157.08 185.492 156.056C184.895 155.011 184.596 153.784 184.596 152.376C184.596 150.968 184.916 149.741 185.556 148.696C186.218 147.651 187.071 146.851 188.116 146.296C189.183 145.72 190.324 145.432 191.54 145.432C192.607 145.432 193.556 145.581 194.388 145.88C195.242 146.179 195.967 146.584 196.564 147.096L195.092 149.016C194.708 148.717 194.239 148.451 193.684 148.216C193.13 147.981 192.5 147.864 191.796 147.864C191.028 147.864 190.314 148.067 189.652 148.472C189.012 148.856 188.5 149.389 188.116 150.072C187.754 150.755 187.572 151.523 187.572 152.376C187.572 153.187 187.764 153.944 188.148 154.648C188.532 155.331 189.066 155.875 189.748 156.28C190.431 156.664 191.21 156.856 192.084 156.856C192.66 156.856 193.183 156.771 193.652 156.6C194.143 156.429 194.58 156.195 194.964 155.896L196.5 157.784ZM206.486 159.32C204.971 159.32 203.67 159.021 202.582 158.424C201.494 157.805 200.651 156.973 200.054 155.928C199.478 154.861 199.19 153.645 199.19 152.28C199.19 150.979 199.521 149.795 200.182 148.728C200.843 147.661 201.729 146.808 202.838 146.168C203.947 145.528 205.185 145.208 206.55 145.208C208.299 145.208 209.75 145.72 210.902 146.744C212.054 147.768 212.833 149.176 213.238 150.968L202.326 154.808L201.622 153.048L210.582 149.784L209.942 150.2C209.686 149.496 209.259 148.888 208.662 148.376C208.065 147.843 207.286 147.576 206.326 147.576C205.515 147.576 204.79 147.779 204.15 148.184C203.51 148.568 203.009 149.101 202.646 149.784C202.283 150.467 202.102 151.245 202.102 152.12C202.102 153.037 202.294 153.848 202.678 154.552C203.062 155.235 203.585 155.779 204.246 156.184C204.929 156.568 205.697 156.76 206.55 156.76C207.126 156.76 207.681 156.653 208.214 156.44C208.769 156.227 209.281 155.949 209.75 155.608L211.126 157.816C210.465 158.264 209.718 158.627 208.886 158.904C208.075 159.181 207.275 159.32 206.486 159.32ZM239.796 139.992C239.007 139.587 238.143 139.235 237.204 138.936C236.265 138.637 235.348 138.488 234.452 138.488C233.215 138.488 232.223 138.776 231.476 139.352C230.751 139.928 230.388 140.696 230.388 141.656C230.388 142.381 230.623 143 231.092 143.512C231.561 144.003 232.18 144.429 232.948 144.792C233.716 145.155 234.516 145.496 235.348 145.816C236.073 146.093 236.788 146.403 237.492 146.744C238.196 147.085 238.825 147.512 239.38 148.024C239.956 148.536 240.404 149.165 240.724 149.912C241.065 150.659 241.236 151.587 241.236 152.696C241.236 153.912 240.927 155.021 240.308 156.024C239.711 157.027 238.847 157.816 237.716 158.392C236.585 158.968 235.241 159.256 233.684 159.256C232.66 159.256 231.679 159.139 230.74 158.904C229.823 158.669 228.969 158.371 228.18 158.008C227.391 157.624 226.687 157.229 226.068 156.824L227.444 154.392C227.956 154.755 228.543 155.107 229.204 155.448C229.865 155.768 230.559 156.035 231.284 156.248C232.009 156.44 232.713 156.536 233.396 156.536C234.121 156.536 234.836 156.408 235.54 156.152C236.265 155.875 236.863 155.459 237.332 154.904C237.801 154.349 238.036 153.613 238.036 152.696C238.036 151.907 237.823 151.256 237.396 150.744C236.991 150.211 236.447 149.763 235.764 149.4C235.081 149.016 234.356 148.675 233.588 148.376C232.863 148.099 232.127 147.8 231.38 147.48C230.633 147.139 229.94 146.733 229.3 146.264C228.66 145.773 228.148 145.176 227.764 144.472C227.38 143.768 227.188 142.915 227.188 141.912C227.188 140.696 227.476 139.64 228.052 138.744C228.649 137.827 229.46 137.112 230.484 136.6C231.508 136.067 232.681 135.779 234.004 135.736C235.497 135.736 236.809 135.917 237.94 136.28C239.092 136.643 240.105 137.091 240.98 137.624L239.796 139.992ZM246.837 165.368L255.573 145.752H258.325L249.781 165.368H246.837ZM250.101 159.096L243.733 145.752H247.093L252.437 157.592L250.101 159.096ZM265.242 159.256C264.303 159.256 263.386 159.096 262.49 158.776C261.615 158.435 260.89 157.933 260.314 157.272L261.562 155.544C262.116 156.077 262.682 156.483 263.258 156.76C263.855 157.016 264.442 157.144 265.018 157.144C265.444 157.144 265.839 157.091 266.202 156.984C266.564 156.877 266.852 156.707 267.066 156.472C267.3 156.216 267.418 155.875 267.418 155.448C267.418 154.979 267.258 154.605 266.938 154.328C266.639 154.051 266.244 153.827 265.754 153.656C265.284 153.485 264.783 153.325 264.25 153.176C263.162 152.813 262.33 152.312 261.754 151.672C261.178 151.032 260.89 150.253 260.89 149.336C260.89 148.632 261.06 147.981 261.402 147.384C261.764 146.765 262.287 146.264 262.97 145.88C263.674 145.496 264.538 145.304 265.562 145.304C266.479 145.304 267.3 145.421 268.026 145.656C268.751 145.869 269.434 146.232 270.074 146.744L268.89 148.6C268.506 148.195 268.047 147.896 267.514 147.704C266.98 147.512 266.5 147.405 266.074 147.384C265.711 147.363 265.359 147.416 265.018 147.544C264.698 147.672 264.431 147.853 264.218 148.088C264.004 148.323 263.898 148.6 263.898 148.92C263.898 149.368 264.047 149.731 264.346 150.008C264.644 150.285 265.028 150.509 265.498 150.68C265.988 150.829 266.468 150.989 266.938 151.16C267.599 151.352 268.186 151.608 268.698 151.928C269.21 152.248 269.615 152.643 269.914 153.112C270.234 153.581 270.394 154.168 270.394 154.872C270.394 155.661 270.202 156.397 269.818 157.08C269.455 157.741 268.89 158.275 268.122 158.68C267.375 159.064 266.415 159.256 265.242 159.256ZM275.841 139.928H278.817V145.816H282.465V148.152H278.817V159H275.841V148.152H273.409V145.816H275.841V139.928ZM292.205 159.32C290.69 159.32 289.389 159.021 288.301 158.424C287.213 157.805 286.37 156.973 285.773 155.928C285.197 154.861 284.909 153.645 284.909 152.28C284.909 150.979 285.239 149.795 285.901 148.728C286.562 147.661 287.447 146.808 288.557 146.168C289.666 145.528 290.903 145.208 292.269 145.208C294.018 145.208 295.469 145.72 296.621 146.744C297.773 147.768 298.551 149.176 298.957 150.968L288.045 154.808L287.341 153.048L296.301 149.784L295.661 150.2C295.405 149.496 294.978 148.888 294.381 148.376C293.783 147.843 293.005 147.576 292.045 147.576C291.234 147.576 290.509 147.779 289.869 148.184C289.229 148.568 288.727 149.101 288.365 149.784C288.002 150.467 287.821 151.245 287.821 152.12C287.821 153.037 288.013 153.848 288.397 154.552C288.781 155.235 289.303 155.779 289.965 156.184C290.647 156.568 291.415 156.76 292.269 156.76C292.845 156.76 293.399 156.653 293.933 156.44C294.487 156.227 294.999 155.949 295.469 155.608L296.845 157.816C296.183 158.264 295.437 158.627 294.605 158.904C293.794 159.181 292.994 159.32 292.205 159.32ZM305.342 145.752L305.598 148.728L305.47 148.472C305.96 147.469 306.654 146.68 307.55 146.104C308.467 145.528 309.512 145.24 310.686 145.24C311.432 145.24 312.094 145.357 312.67 145.592C313.246 145.827 313.715 146.168 314.078 146.616C314.462 147.043 314.707 147.576 314.814 148.216L314.654 148.312C315.166 147.352 315.87 146.605 316.766 146.072C317.683 145.517 318.643 145.24 319.646 145.24C320.947 145.24 321.971 145.613 322.718 146.36C323.486 147.085 323.88 148.035 323.902 149.208V159H320.926V150.264C320.904 149.581 320.734 149.016 320.414 148.568C320.115 148.099 319.582 147.843 318.814 147.8C318.046 147.8 317.352 148.035 316.734 148.504C316.136 148.973 315.667 149.581 315.326 150.328C314.984 151.053 314.803 151.843 314.782 152.696V159H311.806V150.264C311.784 149.581 311.603 149.016 311.262 148.568C310.942 148.099 310.398 147.843 309.63 147.8C308.84 147.8 308.147 148.035 307.55 148.504C306.952 148.973 306.483 149.581 306.142 150.328C305.822 151.075 305.662 151.875 305.662 152.728V159H302.686V145.752H305.342Z" fill="black"/>
<path d="M113.304 177.064L116.232 183.76L115.8 183.808L118.536 177.064H120.72L116.16 187.6L112.968 180.784L110.064 187.6L105.456 177.064H107.64L110.736 184.072L109.968 183.928L112.176 178.792L111.384 177.064H113.304ZM123.116 177.064H125.348V187H123.116V177.064ZM122.948 173.464C122.948 173.112 123.084 172.816 123.356 172.576C123.644 172.336 123.956 172.216 124.292 172.216C124.628 172.216 124.924 172.336 125.18 172.576C125.452 172.816 125.588 173.112 125.588 173.464C125.588 173.832 125.452 174.136 125.18 174.376C124.924 174.6 124.628 174.712 124.292 174.712C123.956 174.712 123.644 174.592 123.356 174.352C123.084 174.112 122.948 173.816 122.948 173.464ZM130.17 172.696H132.402V177.112H135.138V178.864H132.402V187H130.17V178.864H128.346V177.112H130.17V172.696ZM137.835 187V168.424H140.019V179.368L139.971 178.96C140.307 178.304 140.819 177.76 141.507 177.328C142.211 176.896 143.035 176.68 143.979 176.68C144.923 176.68 145.691 176.96 146.283 177.52C146.891 178.064 147.203 178.776 147.219 179.656V187H144.963V180.448C144.947 179.904 144.787 179.464 144.483 179.128C144.195 178.776 143.739 178.6 143.115 178.6C142.539 178.6 142.019 178.768 141.555 179.104C141.091 179.424 140.723 179.864 140.451 180.424C140.195 180.984 140.067 181.624 140.067 182.344V187H137.835ZM159.246 169.648H161.574V187H159.246V169.648ZM171.191 169.648C172.455 169.648 173.535 169.864 174.431 170.296C175.327 170.712 176.015 171.32 176.495 172.12C176.991 172.92 177.239 173.888 177.239 175.024C177.239 175.712 177.135 176.392 176.927 177.064C176.719 177.72 176.383 178.32 175.919 178.864C175.471 179.392 174.879 179.816 174.143 180.136C173.407 180.456 172.511 180.616 171.455 180.616H168.887V187H166.559V169.648H171.191ZM171.431 178.384C172.119 178.384 172.687 178.272 173.135 178.048C173.583 177.824 173.935 177.544 174.191 177.208C174.447 176.856 174.631 176.488 174.743 176.104C174.855 175.72 174.911 175.376 174.911 175.072C174.911 174.72 174.855 174.36 174.743 173.992C174.631 173.608 174.439 173.264 174.167 172.96C173.911 172.64 173.567 172.384 173.135 172.192C172.719 171.984 172.199 171.88 171.575 171.88H168.887V178.384H171.431ZM188.426 187V169.648H193.154C194.866 169.648 196.322 169.912 197.522 170.44C198.738 170.968 199.714 171.664 200.45 172.528C201.186 173.392 201.722 174.352 202.058 175.408C202.41 176.448 202.586 177.488 202.586 178.528C202.586 179.84 202.354 181.016 201.89 182.056C201.442 183.096 200.818 183.984 200.018 184.72C199.218 185.456 198.298 186.024 197.258 186.424C196.234 186.808 195.146 187 193.994 187H188.426ZM190.754 184.768H193.538C194.498 184.768 195.378 184.624 196.178 184.336C196.994 184.048 197.698 183.632 198.29 183.088C198.898 182.544 199.37 181.88 199.706 181.096C200.042 180.296 200.21 179.392 200.21 178.384C200.21 177.312 200.034 176.376 199.682 175.576C199.33 174.76 198.85 174.08 198.242 173.536C197.634 172.992 196.946 172.584 196.178 172.312C195.41 172.024 194.602 171.88 193.754 171.88H190.754V184.768ZM210.552 187.24C209.416 187.24 208.44 187.016 207.624 186.568C206.808 186.104 206.176 185.48 205.728 184.696C205.296 183.896 205.08 182.984 205.08 181.96C205.08 180.984 205.328 180.096 205.824 179.296C206.32 178.496 206.984 177.856 207.816 177.376C208.648 176.896 209.576 176.656 210.6 176.656C211.912 176.656 213 177.04 213.864 177.808C214.728 178.576 215.312 179.632 215.616 180.976L207.432 183.856L206.904 182.536L213.624 180.088L213.144 180.4C212.952 179.872 212.632 179.416 212.184 179.032C211.736 178.632 211.152 178.432 210.432 178.432C209.824 178.432 209.28 178.584 208.8 178.888C208.32 179.176 207.944 179.576 207.672 180.088C207.4 180.6 207.264 181.184 207.264 181.84C207.264 182.528 207.408 183.136 207.696 183.664C207.984 184.176 208.376 184.584 208.872 184.888C209.384 185.176 209.96 185.32 210.6 185.32C211.032 185.32 211.448 185.24 211.848 185.08C212.264 184.92 212.648 184.712 213 184.456L214.032 186.112C213.536 186.448 212.976 186.72 212.352 186.928C211.744 187.136 211.144 187.24 210.552 187.24ZM219.373 172.696H221.605V177.112H224.341V178.864H221.605V187H219.373V178.864H217.549V177.112H219.373V172.696ZM231.646 187.24C230.51 187.24 229.534 187.016 228.718 186.568C227.902 186.104 227.27 185.48 226.822 184.696C226.39 183.896 226.174 182.984 226.174 181.96C226.174 180.984 226.422 180.096 226.918 179.296C227.414 178.496 228.078 177.856 228.91 177.376C229.742 176.896 230.67 176.656 231.694 176.656C233.006 176.656 234.094 177.04 234.958 177.808C235.822 178.576 236.406 179.632 236.71 180.976L228.526 183.856L227.998 182.536L234.718 180.088L234.238 180.4C234.046 179.872 233.726 179.416 233.278 179.032C232.83 178.632 232.246 178.432 231.526 178.432C230.918 178.432 230.374 178.584 229.894 178.888C229.414 179.176 229.038 179.576 228.766 180.088C228.494 180.6 228.358 181.184 228.358 181.84C228.358 182.528 228.502 183.136 228.79 183.664C229.078 184.176 229.47 184.584 229.966 184.888C230.478 185.176 231.054 185.32 231.694 185.32C232.126 185.32 232.542 185.24 232.942 185.08C233.358 184.92 233.742 184.712 234.094 184.456L235.126 186.112C234.63 186.448 234.07 186.72 233.446 186.928C232.838 187.136 232.238 187.24 231.646 187.24ZM247.571 186.088C247.123 186.44 246.587 186.72 245.963 186.928C245.339 187.136 244.715 187.24 244.091 187.24C243.003 187.24 242.051 187.024 241.235 186.592C240.419 186.16 239.779 185.56 239.315 184.792C238.867 184.008 238.643 183.088 238.643 182.032C238.643 180.976 238.883 180.056 239.363 179.272C239.859 178.488 240.499 177.888 241.283 177.472C242.083 177.04 242.939 176.824 243.851 176.824C244.651 176.824 245.363 176.936 245.987 177.16C246.627 177.384 247.171 177.688 247.619 178.072L246.515 179.512C246.227 179.288 245.875 179.088 245.459 178.912C245.043 178.736 244.571 178.648 244.043 178.648C243.467 178.648 242.931 178.8 242.435 179.104C241.955 179.392 241.571 179.792 241.283 180.304C241.011 180.816 240.875 181.392 240.875 182.032C240.875 182.64 241.019 183.208 241.307 183.736C241.595 184.248 241.995 184.656 242.507 184.96C243.019 185.248 243.603 185.392 244.259 185.392C244.691 185.392 245.083 185.328 245.435 185.2C245.803 185.072 246.131 184.896 246.419 184.672L247.571 186.088ZM251.412 172.696H253.644V177.112H256.38V178.864H253.644V187H251.412V178.864H249.588V177.112H251.412V172.696ZM259.077 177.064H261.309V187H259.077V177.064ZM258.909 173.464C258.909 173.112 259.045 172.816 259.317 172.576C259.605 172.336 259.917 172.216 260.253 172.216C260.589 172.216 260.885 172.336 261.141 172.576C261.413 172.816 261.549 173.112 261.549 173.464C261.549 173.832 261.413 174.136 261.141 174.376C260.885 174.6 260.589 174.712 260.253 174.712C259.917 174.712 259.605 174.592 259.317 174.352C259.045 174.112 258.909 173.816 258.909 173.464ZM264.307 181.936C264.307 180.944 264.539 180.048 265.003 179.248C265.483 178.448 266.139 177.816 266.971 177.352C267.803 176.888 268.747 176.656 269.803 176.656C270.891 176.656 271.843 176.888 272.659 177.352C273.475 177.816 274.107 178.448 274.555 179.248C275.003 180.048 275.227 180.944 275.227 181.936C275.227 182.928 275.003 183.832 274.555 184.648C274.107 185.448 273.467 186.08 272.635 186.544C271.819 187.008 270.867 187.24 269.779 187.24C268.723 187.24 267.779 187.024 266.947 186.592C266.131 186.144 265.483 185.528 265.003 184.744C264.539 183.944 264.307 183.008 264.307 181.936ZM266.539 181.96C266.539 182.6 266.683 183.184 266.971 183.712C267.259 184.224 267.643 184.632 268.123 184.936C268.619 185.24 269.163 185.392 269.755 185.392C270.379 185.392 270.931 185.24 271.411 184.936C271.907 184.632 272.291 184.224 272.563 183.712C272.835 183.184 272.971 182.6 272.971 181.96C272.971 181.32 272.835 180.744 272.563 180.232C272.291 179.704 271.907 179.288 271.411 178.984C270.931 178.664 270.379 178.504 269.755 178.504C269.147 178.504 268.595 178.664 268.099 178.984C267.619 179.304 267.235 179.728 266.947 180.256C266.675 180.768 266.539 181.336 266.539 181.96ZM280.241 177.064L280.433 179.488L280.337 179.104C280.657 178.368 281.177 177.784 281.897 177.352C282.617 176.904 283.449 176.68 284.393 176.68C285.337 176.68 286.105 176.96 286.697 177.52C287.305 178.064 287.617 178.776 287.633 179.656V187H285.377V180.448C285.361 179.904 285.201 179.464 284.897 179.128C284.609 178.776 284.153 178.6 283.529 178.6C282.953 178.6 282.433 178.76 281.969 179.08C281.505 179.4 281.137 179.84 280.865 180.4C280.609 180.96 280.481 181.608 280.481 182.344V187H278.249V177.064H280.241Z" fill="black"/>
</svg>
