<svg width="380" height="330" viewBox="0 0 380 330" fill="none" xmlns="http://www.w3.org/2000/svg">
<rect width="380" height="330" fill="#1E1E1E"/>
<rect width="380" height="330" fill="white"/>
<path d="M105.819 166.129L78.3904 138.308L79.7643 138.651L79.8624 165H75.1029V128.445H75.3483L102.482 156.364L101.354 156.119L101.255 129.525H105.966V166.129H105.819ZM116.168 129.525H139.229V134.088H120.927V144.883H137.266V149.446H120.927V160.437H139.916V165H116.168V129.525ZM145.232 129.525H151.267L174.377 165H168.293L145.232 129.525ZM144.741 165L157.057 145.717L159.363 150.329L150.629 165H144.741ZM159.51 143.999L168.146 129.525H173.887L162.062 147.974L159.51 143.999ZM178.542 129.525H202.094V134.088H192.575V165H187.816V134.088H178.542V129.525ZM219.074 153.175L205.924 129.525H211.763L222.312 149.102L220.84 149.201L231.291 129.525H237.081L223.833 153.175V165H219.074V153.175ZM235.064 162.399C235.064 161.68 235.326 161.075 235.849 160.584C236.405 160.061 237.01 159.799 237.665 159.799C238.253 159.799 238.81 160.061 239.333 160.584C239.889 161.075 240.167 161.68 240.167 162.399C240.167 163.185 239.889 163.822 239.333 164.313C238.81 164.771 238.253 165 237.665 165C237.01 165 236.405 164.771 235.849 164.313C235.326 163.822 235.064 163.185 235.064 162.399ZM243.208 165L258.713 128.053H259.007L274.463 165H269.017L257.437 135.511L260.823 133.303L247.869 165H243.208ZM252.285 151.556H265.484L267.054 155.677H250.911L252.285 151.556ZM281.145 129.525H304.206V134.088H285.904V144.883H302.243V149.446H285.904V160.437H304.893V165H281.145V129.525Z" fill="black"/>
</svg>
