<svg width="380" height="330" viewBox="0 0 380 330" fill="none" xmlns="http://www.w3.org/2000/svg">
<rect width="380" height="330" fill="#1E1E1E"/>
<rect width="380" height="330" fill="white"/>
<path d="M50.7384 142.346C48.8426 141.372 46.7674 140.527 44.5129 139.81C42.2584 139.092 40.0551 138.734 37.903 138.734C34.9312 138.734 32.5486 139.425 30.7552 140.809C29.0131 142.192 28.142 144.037 28.142 146.343C28.142 148.085 28.7056 149.571 29.8329 150.8C30.9601 151.979 32.4461 153.004 34.2907 153.875C36.1353 154.746 38.0568 155.566 40.0551 156.334C41.7972 157 43.5137 157.743 45.2046 158.563C46.8955 159.383 48.4071 160.408 49.7393 161.637C51.1227 162.867 52.1988 164.379 52.9673 166.172C53.7872 167.966 54.1971 170.194 54.1971 172.859C54.1971 175.779 53.4541 178.444 51.9682 180.852C50.5335 183.26 48.4583 185.156 45.7426 186.54C43.027 187.923 39.7989 188.615 36.0584 188.615C33.599 188.615 31.242 188.333 28.9874 187.769C26.7842 187.206 24.7346 186.488 22.8387 185.617C20.9429 184.695 19.252 183.747 17.7661 182.774L21.071 176.932C22.3007 177.803 23.7098 178.649 25.2982 179.469C26.8866 180.237 28.5519 180.878 30.294 181.39C32.0362 181.851 33.7271 182.082 35.3667 182.082C37.1088 182.082 38.8254 181.774 40.5162 181.16C42.2584 180.493 43.6931 179.494 44.8203 178.162C45.9476 176.83 46.5112 175.062 46.5112 172.859C46.5112 170.963 45.9988 169.4 44.974 168.17C44.0005 166.889 42.6939 165.813 41.0543 164.942C39.4146 164.02 37.6725 163.2 35.8279 162.483C34.0857 161.817 32.318 161.099 30.5246 160.331C28.7312 159.511 27.066 158.538 25.5288 157.41C23.9916 156.232 22.7619 154.797 21.8396 153.106C20.9173 151.415 20.4561 149.366 20.4561 146.957C20.4561 144.037 21.1479 141.501 22.5313 139.348C23.966 137.145 25.9131 135.429 28.3726 134.199C30.832 132.918 33.6502 132.226 36.827 132.124C40.4138 132.124 43.565 132.559 46.2806 133.43C49.0476 134.301 51.4814 135.377 53.5822 136.658L50.7384 142.346ZM61.1936 188L85.481 130.125H85.9421L110.153 188H101.621L83.4826 141.808L88.7859 138.349L68.4952 188H61.1936ZM75.4125 166.941H96.0875L98.5469 173.397H73.2604L75.4125 166.941ZM112.192 132.431H149.084V139.579H134.173V188H126.718V139.579H112.192V132.431ZM226.055 183.85C225.133 184.465 223.877 185.156 222.289 185.925C220.7 186.693 218.83 187.334 216.678 187.846C214.577 188.359 212.272 188.615 209.761 188.615C205.457 188.564 201.563 187.795 198.078 186.309C194.645 184.823 191.725 182.799 189.316 180.237C186.908 177.675 185.038 174.729 183.706 171.399C182.425 168.017 181.784 164.43 181.784 160.638C181.784 156.488 182.45 152.671 183.783 149.186C185.166 145.651 187.088 142.602 189.547 140.04C192.006 137.427 194.901 135.403 198.232 133.968C201.614 132.534 205.303 131.816 209.3 131.816C212.63 131.816 215.653 132.277 218.369 133.2C221.085 134.071 223.416 135.121 225.363 136.351L222.366 143.268C220.828 142.243 218.958 141.27 216.755 140.348C214.603 139.425 212.195 138.964 209.53 138.964C206.815 138.964 204.253 139.502 201.844 140.578C199.436 141.654 197.31 143.166 195.465 145.113C193.62 147.06 192.16 149.34 191.084 151.953C190.059 154.515 189.547 157.282 189.547 160.254C189.547 163.277 190.008 166.095 190.93 168.708C191.904 171.27 193.262 173.499 195.004 175.395C196.797 177.291 198.949 178.777 201.46 179.853C203.971 180.929 206.789 181.467 209.915 181.467C212.733 181.467 215.243 181.031 217.447 180.16C219.65 179.289 221.469 178.316 222.904 177.24L226.055 183.85ZM253.366 132.431C256.184 132.431 258.771 132.815 261.128 133.584C263.536 134.301 265.612 135.403 267.354 136.889C269.147 138.324 270.531 140.117 271.504 142.269C272.529 144.37 273.041 146.829 273.041 149.648C273.041 151.851 272.708 154.003 272.042 156.104C271.427 158.204 270.377 160.126 268.891 161.868C267.405 163.559 265.458 164.942 263.05 166.018C260.693 167.043 257.772 167.556 254.288 167.556H246.064V188H238.609V132.431H253.366ZM254.134 160.408C256.337 160.408 258.156 160.075 259.591 159.409C261.077 158.742 262.23 157.897 263.05 156.872C263.87 155.796 264.459 154.643 264.817 153.414C265.176 152.184 265.355 151.031 265.355 149.955C265.355 148.828 265.151 147.675 264.741 146.496C264.382 145.267 263.767 144.139 262.896 143.115C262.076 142.09 260.975 141.244 259.591 140.578C258.259 139.912 256.619 139.579 254.672 139.579H246.064V160.408H254.134ZM263.28 164.635L277.807 188H269.198L254.442 164.866L263.28 164.635ZM289.272 188V130.663H289.349L318.479 172.013L315.327 171.399L344.38 130.663H344.534V188H337.155V147.572L337.616 151.338L316.634 181.006H316.48L295.19 151.338L296.497 147.88V188H289.272Z" fill="black"/>
</svg>
