<svg width="380" height="330" viewBox="0 0 380 330" fill="none" xmlns="http://www.w3.org/2000/svg">
<rect width="380" height="330" fill="#1E1E1E"/>
<rect width="380" height="330" fill="white"/>
<path d="M100.64 212L106.96 196.94H107.08L113.38 212H111.16L106.44 199.98L107.82 199.08L102.54 212H100.64ZM104.34 206.52H109.72L110.36 208.2H103.78L104.34 206.52ZM122.168 211.24C121.795 211.533 121.348 211.767 120.828 211.94C120.308 212.113 119.788 212.2 119.268 212.2C118.361 212.2 117.568 212.02 116.888 211.66C116.208 211.3 115.675 210.8 115.288 210.16C114.915 209.507 114.728 208.74 114.728 207.86C114.728 206.98 114.928 206.213 115.328 205.56C115.741 204.907 116.275 204.407 116.928 204.06C117.595 203.7 118.308 203.52 119.068 203.52C119.735 203.52 120.328 203.613 120.848 203.8C121.381 203.987 121.835 204.24 122.208 204.56L121.288 205.76C121.048 205.573 120.755 205.407 120.408 205.26C120.061 205.113 119.668 205.04 119.228 205.04C118.748 205.04 118.301 205.167 117.888 205.42C117.488 205.66 117.168 205.993 116.928 206.42C116.701 206.847 116.588 207.327 116.588 207.86C116.588 208.367 116.708 208.84 116.948 209.28C117.188 209.707 117.521 210.047 117.948 210.3C118.375 210.54 118.861 210.66 119.408 210.66C119.768 210.66 120.095 210.607 120.388 210.5C120.695 210.393 120.968 210.247 121.208 210.06L122.168 211.24ZM131.289 211.24C130.916 211.533 130.469 211.767 129.949 211.94C129.429 212.113 128.909 212.2 128.389 212.2C127.483 212.2 126.689 212.02 126.009 211.66C125.329 211.3 124.796 210.8 124.409 210.16C124.036 209.507 123.849 208.74 123.849 207.86C123.849 206.98 124.049 206.213 124.449 205.56C124.863 204.907 125.396 204.407 126.049 204.06C126.716 203.7 127.429 203.52 128.189 203.52C128.856 203.52 129.449 203.613 129.969 203.8C130.503 203.987 130.956 204.24 131.329 204.56L130.409 205.76C130.169 205.573 129.876 205.407 129.529 205.26C129.183 205.113 128.789 205.04 128.349 205.04C127.869 205.04 127.423 205.167 127.009 205.42C126.609 205.66 126.289 205.993 126.049 206.42C125.823 206.847 125.709 207.327 125.709 207.86C125.709 208.367 125.829 208.84 126.069 209.28C126.309 209.707 126.643 210.047 127.069 210.3C127.496 210.54 127.983 210.66 128.529 210.66C128.889 210.66 129.216 210.607 129.509 210.5C129.816 210.393 130.089 210.247 130.329 210.06L131.289 211.24ZM132.97 207.78C132.97 206.953 133.164 206.207 133.55 205.54C133.95 204.873 134.497 204.347 135.19 203.96C135.884 203.573 136.67 203.38 137.55 203.38C138.457 203.38 139.25 203.573 139.93 203.96C140.61 204.347 141.137 204.873 141.51 205.54C141.884 206.207 142.07 206.953 142.07 207.78C142.07 208.607 141.884 209.36 141.51 210.04C141.137 210.707 140.604 211.233 139.91 211.62C139.23 212.007 138.437 212.2 137.53 212.2C136.65 212.2 135.864 212.02 135.17 211.66C134.49 211.287 133.95 210.773 133.55 210.12C133.164 209.453 132.97 208.673 132.97 207.78ZM134.83 207.8C134.83 208.333 134.95 208.82 135.19 209.26C135.43 209.687 135.75 210.027 136.15 210.28C136.564 210.533 137.017 210.66 137.51 210.66C138.03 210.66 138.49 210.533 138.89 210.28C139.304 210.027 139.624 209.687 139.85 209.26C140.077 208.82 140.19 208.333 140.19 207.8C140.19 207.267 140.077 206.787 139.85 206.36C139.624 205.92 139.304 205.573 138.89 205.32C138.49 205.053 138.03 204.92 137.51 204.92C137.004 204.92 136.544 205.053 136.13 205.32C135.73 205.587 135.41 205.94 135.17 206.38C134.944 206.807 134.83 207.28 134.83 207.8ZM147.209 212.32C146.462 212.32 145.842 212.093 145.349 211.64C144.869 211.173 144.615 210.573 144.589 209.84V203.72H146.449V209.18C146.475 209.633 146.602 210 146.829 210.28C147.069 210.56 147.442 210.707 147.949 210.72C148.415 210.72 148.829 210.587 149.189 210.32C149.562 210.04 149.862 209.667 150.089 209.2C150.315 208.72 150.429 208.18 150.429 207.58V203.72H152.289V212H150.589L150.429 209.96L150.529 210.32C150.369 210.707 150.122 211.053 149.789 211.36C149.469 211.653 149.089 211.887 148.649 212.06C148.209 212.233 147.729 212.32 147.209 212.32ZM157.167 203.72L157.327 205.74L157.247 205.42C157.513 204.807 157.947 204.32 158.547 203.96C159.147 203.587 159.84 203.4 160.627 203.4C161.413 203.4 162.053 203.633 162.547 204.1C163.053 204.553 163.313 205.147 163.327 205.88V212H161.447V206.54C161.433 206.087 161.3 205.72 161.047 205.44C160.807 205.147 160.427 205 159.907 205C159.427 205 158.993 205.133 158.607 205.4C158.22 205.667 157.913 206.033 157.687 206.5C157.473 206.967 157.367 207.507 157.367 208.12V212H155.507V203.72H157.167ZM167.361 200.08H169.221V203.76H171.501V205.22H169.221V212H167.361V205.22H165.841V203.76H167.361V200.08ZM173.749 203.72H175.609V212H173.749V203.72ZM173.609 200.72C173.609 200.427 173.722 200.18 173.949 199.98C174.189 199.78 174.449 199.68 174.729 199.68C175.009 199.68 175.256 199.78 175.469 199.98C175.696 200.18 175.809 200.427 175.809 200.72C175.809 201.027 175.696 201.28 175.469 201.48C175.256 201.667 175.009 201.76 174.729 201.76C174.449 201.76 174.189 201.66 173.949 201.46C173.722 201.26 173.609 201.013 173.609 200.72ZM180.487 203.72L180.647 205.74L180.567 205.42C180.834 204.807 181.267 204.32 181.867 203.96C182.467 203.587 183.16 203.4 183.947 203.4C184.734 203.4 185.374 203.633 185.867 204.1C186.374 204.553 186.634 205.147 186.647 205.88V212H184.767V206.54C184.754 206.087 184.62 205.72 184.367 205.44C184.127 205.147 183.747 205 183.227 205C182.747 205 182.314 205.133 181.927 205.4C181.54 205.667 181.234 206.033 181.007 206.5C180.794 206.967 180.687 207.507 180.687 208.12V212H178.827V203.72H180.487ZM193.862 216.1C193.248 216.1 192.708 216.027 192.242 215.88C191.775 215.747 191.348 215.553 190.962 215.3C190.588 215.047 190.228 214.76 189.882 214.44L190.962 213.18C191.402 213.593 191.848 213.913 192.302 214.14C192.755 214.367 193.262 214.48 193.822 214.48C194.448 214.48 194.975 214.373 195.402 214.16C195.842 213.96 196.175 213.673 196.402 213.3C196.628 212.94 196.742 212.52 196.742 212.04L196.762 209.8L196.922 210.16C196.682 210.733 196.248 211.22 195.622 211.62C194.995 212.007 194.235 212.2 193.342 212.2C192.582 212.2 191.882 212.007 191.242 211.62C190.615 211.233 190.108 210.713 189.722 210.06C189.348 209.393 189.162 208.647 189.162 207.82C189.162 206.953 189.362 206.193 189.762 205.54C190.162 204.873 190.688 204.347 191.342 203.96C191.995 203.573 192.708 203.38 193.482 203.38C194.215 203.38 194.882 203.533 195.482 203.84C196.095 204.133 196.542 204.513 196.822 204.98L196.722 205.32L196.922 203.72H198.622V212.06C198.622 212.807 198.428 213.487 198.042 214.1C197.655 214.713 197.108 215.2 196.402 215.56C195.695 215.92 194.848 216.1 193.862 216.1ZM191.022 207.78C191.022 208.313 191.148 208.8 191.402 209.24C191.655 209.68 191.995 210.027 192.422 210.28C192.862 210.533 193.348 210.66 193.882 210.66C194.375 210.66 194.815 210.573 195.202 210.4C195.602 210.213 195.935 209.967 196.202 209.66C196.468 209.34 196.655 208.973 196.762 208.56V206.92C196.642 206.52 196.442 206.173 196.162 205.88C195.882 205.573 195.548 205.34 195.162 205.18C194.775 205.007 194.348 204.92 193.882 204.92C193.348 204.92 192.862 205.04 192.422 205.28C191.995 205.52 191.655 205.86 191.402 206.3C191.148 206.727 191.022 207.22 191.022 207.78ZM216.103 200.12C215.61 199.867 215.07 199.647 214.483 199.46C213.896 199.273 213.323 199.18 212.763 199.18C211.99 199.18 211.37 199.36 210.903 199.72C210.45 200.08 210.223 200.56 210.223 201.16C210.223 201.613 210.37 202 210.663 202.32C210.956 202.627 211.343 202.893 211.823 203.12C212.303 203.347 212.803 203.56 213.323 203.76C213.776 203.933 214.223 204.127 214.663 204.34C215.103 204.553 215.496 204.82 215.843 205.14C216.203 205.46 216.483 205.853 216.683 206.32C216.896 206.787 217.003 207.367 217.003 208.06C217.003 208.82 216.81 209.513 216.423 210.14C216.05 210.767 215.51 211.26 214.803 211.62C214.096 211.98 213.256 212.16 212.283 212.16C211.643 212.16 211.03 212.087 210.443 211.94C209.87 211.793 209.336 211.607 208.843 211.38C208.35 211.14 207.91 210.893 207.523 210.64L208.383 209.12C208.703 209.347 209.07 209.567 209.483 209.78C209.896 209.98 210.33 210.147 210.783 210.28C211.236 210.4 211.676 210.46 212.103 210.46C212.556 210.46 213.003 210.38 213.443 210.22C213.896 210.047 214.27 209.787 214.563 209.44C214.856 209.093 215.003 208.633 215.003 208.06C215.003 207.567 214.87 207.16 214.603 206.84C214.35 206.507 214.01 206.227 213.583 206C213.156 205.76 212.703 205.547 212.223 205.36C211.77 205.187 211.31 205 210.843 204.8C210.376 204.587 209.943 204.333 209.543 204.04C209.143 203.733 208.823 203.36 208.583 202.92C208.343 202.48 208.223 201.947 208.223 201.32C208.223 200.56 208.403 199.9 208.763 199.34C209.136 198.767 209.643 198.32 210.283 198C210.923 197.667 211.656 197.487 212.483 197.46C213.416 197.46 214.236 197.573 214.943 197.8C215.663 198.027 216.296 198.307 216.843 198.64L216.103 200.12ZM219.084 207.78C219.084 206.953 219.277 206.207 219.664 205.54C220.064 204.873 220.61 204.347 221.304 203.96C221.997 203.573 222.784 203.38 223.664 203.38C224.57 203.38 225.364 203.573 226.044 203.96C226.724 204.347 227.25 204.873 227.624 205.54C227.997 206.207 228.184 206.953 228.184 207.78C228.184 208.607 227.997 209.36 227.624 210.04C227.25 210.707 226.717 211.233 226.024 211.62C225.344 212.007 224.55 212.2 223.644 212.2C222.764 212.2 221.977 212.02 221.284 211.66C220.604 211.287 220.064 210.773 219.664 210.12C219.277 209.453 219.084 208.673 219.084 207.78ZM220.944 207.8C220.944 208.333 221.064 208.82 221.304 209.26C221.544 209.687 221.864 210.027 222.264 210.28C222.677 210.533 223.13 210.66 223.624 210.66C224.144 210.66 224.604 210.533 225.004 210.28C225.417 210.027 225.737 209.687 225.964 209.26C226.19 208.82 226.304 208.333 226.304 207.8C226.304 207.267 226.19 206.787 225.964 206.36C225.737 205.92 225.417 205.573 225.004 205.32C224.604 205.053 224.144 204.92 223.624 204.92C223.117 204.92 222.657 205.053 222.244 205.32C221.844 205.587 221.524 205.94 221.284 206.38C221.057 206.807 220.944 207.28 220.944 207.8ZM231.382 212V205.38H229.962V203.72H231.382V200.22C231.382 199.02 231.649 198.1 232.182 197.46C232.729 196.82 233.529 196.5 234.582 196.5C234.862 196.5 235.169 196.54 235.502 196.62C235.849 196.7 236.149 196.833 236.402 197.02L235.622 198.36C235.502 198.24 235.369 198.16 235.222 198.12C235.075 198.067 234.929 198.04 234.782 198.04C234.289 198.04 233.909 198.207 233.642 198.54C233.375 198.873 233.242 199.44 233.242 200.24V203.72H235.862V205.38H233.242V212H231.382ZM239.08 200.08H240.94V203.76H243.22V205.22H240.94V212H239.08V205.22H237.56V203.76H239.08V200.08ZM250.768 203.72L253.208 209.3L252.848 209.34L255.128 203.72H256.948L253.148 212.5L250.488 206.82L248.068 212.5L244.228 203.72H246.048L248.628 209.56L247.988 209.44L249.828 205.16L249.168 203.72H250.768ZM262.111 212.2C261.337 212.2 260.631 212.033 259.991 211.7C259.364 211.367 258.864 210.88 258.491 210.24C258.131 209.587 257.951 208.793 257.951 207.86C257.951 206.94 258.144 206.147 258.531 205.48C258.917 204.8 259.431 204.28 260.071 203.92C260.724 203.56 261.437 203.38 262.211 203.38C262.984 203.38 263.637 203.56 264.171 203.92C264.704 204.267 265.111 204.68 265.391 205.16L265.271 205.48L265.451 203.72H267.171V212H265.311V209.84L265.511 210.32C265.457 210.453 265.337 210.627 265.151 210.84C264.977 211.04 264.737 211.247 264.431 211.46C264.137 211.673 263.797 211.853 263.411 212C263.024 212.133 262.591 212.2 262.111 212.2ZM262.611 210.66C263.077 210.66 263.497 210.573 263.871 210.4C264.244 210.227 264.551 209.987 264.791 209.68C265.044 209.36 265.217 208.98 265.311 208.54V206.92C265.204 206.52 265.017 206.173 264.751 205.88C264.484 205.573 264.164 205.34 263.791 205.18C263.417 205.007 263.004 204.92 262.551 204.92C262.057 204.92 261.604 205.04 261.191 205.28C260.777 205.52 260.444 205.853 260.191 206.28C259.951 206.707 259.831 207.207 259.831 207.78C259.831 208.313 259.957 208.8 260.211 209.24C260.464 209.68 260.804 210.027 261.231 210.28C261.657 210.533 262.117 210.66 262.611 210.66ZM272.05 203.72L272.23 206.12L272.13 205.8C272.343 205.293 272.65 204.867 273.05 204.52C273.463 204.16 273.89 203.887 274.33 203.7C274.783 203.5 275.176 203.4 275.51 203.4L275.41 205.24C274.783 205.2 274.23 205.32 273.75 205.6C273.283 205.88 272.91 206.253 272.63 206.72C272.363 207.187 272.23 207.687 272.23 208.22V212H270.39V203.72H272.05ZM281.398 212.2C280.451 212.2 279.638 212.013 278.958 211.64C278.278 211.253 277.751 210.733 277.378 210.08C277.018 209.413 276.838 208.653 276.838 207.8C276.838 206.987 277.044 206.247 277.458 205.58C277.871 204.913 278.424 204.38 279.118 203.98C279.811 203.58 280.584 203.38 281.438 203.38C282.531 203.38 283.438 203.7 284.158 204.34C284.878 204.98 285.364 205.86 285.618 206.98L278.798 209.38L278.358 208.28L283.958 206.24L283.558 206.5C283.398 206.06 283.131 205.68 282.758 205.36C282.384 205.027 281.898 204.86 281.298 204.86C280.791 204.86 280.338 204.987 279.938 205.24C279.538 205.48 279.224 205.813 278.998 206.24C278.771 206.667 278.658 207.153 278.658 207.7C278.658 208.273 278.778 208.78 279.018 209.22C279.258 209.647 279.584 209.987 279.998 210.24C280.424 210.48 280.904 210.6 281.438 210.6C281.798 210.6 282.144 210.533 282.478 210.4C282.824 210.267 283.144 210.093 283.438 209.88L284.298 211.26C283.884 211.54 283.418 211.767 282.898 211.94C282.391 212.113 281.891 212.2 281.398 212.2Z" fill="black"/>
<path d="M64.7384 141.346C62.8426 140.372 60.7674 139.527 58.5129 138.81C56.2584 138.092 54.0551 137.734 51.903 137.734C48.9312 137.734 46.5486 138.425 44.7552 139.809C43.0131 141.192 42.142 143.037 42.142 145.343C42.142 147.085 42.7056 148.571 43.8329 149.8C44.9601 150.979 46.4461 152.004 48.2907 152.875C50.1353 153.746 52.0568 154.566 54.0551 155.334C55.7972 156 57.5137 156.743 59.2046 157.563C60.8955 158.383 62.4071 159.408 63.7393 160.637C65.1227 161.867 66.1988 163.379 66.9673 165.172C67.7872 166.966 68.1971 169.194 68.1971 171.859C68.1971 174.779 67.4541 177.444 65.9682 179.852C64.5335 182.26 62.4583 184.156 59.7426 185.54C57.027 186.923 53.7989 187.615 50.0584 187.615C47.599 187.615 45.242 187.333 42.9874 186.769C40.7842 186.206 38.7346 185.488 36.8387 184.617C34.9429 183.695 33.252 182.747 31.7661 181.774L35.071 175.932C36.3007 176.803 37.7098 177.649 39.2982 178.469C40.8866 179.237 42.5519 179.878 44.294 180.39C46.0362 180.851 47.7271 181.082 49.3667 181.082C51.1088 181.082 52.8254 180.774 54.5162 180.16C56.2584 179.493 57.6931 178.494 58.8203 177.162C59.9476 175.83 60.5112 174.062 60.5112 171.859C60.5112 169.963 59.9988 168.4 58.974 167.17C58.0005 165.889 56.6939 164.813 55.0543 163.942C53.4146 163.02 51.6725 162.2 49.8279 161.483C48.0857 160.817 46.318 160.099 44.5246 159.331C42.7312 158.511 41.066 157.538 39.5288 156.41C37.9916 155.232 36.7619 153.797 35.8396 152.106C34.9173 150.415 34.4561 148.366 34.4561 145.957C34.4561 143.037 35.1479 140.501 36.5313 138.348C37.966 136.145 39.9131 134.429 42.3726 133.199C44.832 131.918 47.6502 131.226 50.827 131.124C54.4138 131.124 57.565 131.559 60.2806 132.43C63.0476 133.301 65.4814 134.377 67.5822 135.658L64.7384 141.346ZM80.7274 131.431H116.851V138.579H88.1827V155.488H113.777V162.636H88.1827V179.852H117.927V187H80.7274V131.431ZM174.368 182.235C173.599 182.901 172.523 183.567 171.14 184.233C169.756 184.848 168.219 185.412 166.528 185.924C164.888 186.436 163.172 186.846 161.379 187.154C159.636 187.461 157.997 187.615 156.46 187.615C152.002 187.615 147.98 186.923 144.393 185.54C140.857 184.156 137.809 182.235 135.247 179.775C132.736 177.316 130.789 174.421 129.405 171.09C128.073 167.76 127.407 164.147 127.407 160.253C127.407 155.642 128.15 151.517 129.636 147.879C131.173 144.19 133.248 141.09 135.862 138.579C138.526 136.017 141.575 134.096 145.008 132.815C148.441 131.482 152.079 130.816 155.922 130.816C159.15 130.816 162.147 131.201 164.914 131.969C167.681 132.738 170.115 133.711 172.216 134.89L169.679 141.73C168.655 141.115 167.374 140.552 165.836 140.039C164.35 139.527 162.813 139.117 161.225 138.81C159.636 138.451 158.151 138.272 156.767 138.272C153.488 138.272 150.516 138.784 147.851 139.809C145.187 140.782 142.907 142.217 141.011 144.113C139.115 145.957 137.655 148.212 136.63 150.876C135.605 153.49 135.093 156.436 135.093 159.715C135.093 162.738 135.605 165.505 136.63 168.016C137.655 170.527 139.115 172.704 141.011 174.549C142.907 176.342 145.161 177.751 147.775 178.776C150.439 179.75 153.36 180.236 156.537 180.236C158.432 180.236 160.303 180.057 162.147 179.698C163.992 179.289 165.58 178.725 166.912 178.008V166.94H155.845V159.792H174.368V182.235ZM183.051 187L207.338 129.125H207.799L232.01 187H223.479L205.34 140.808L210.643 137.349L190.353 187H183.051ZM197.27 165.941H217.945L220.404 172.397H195.118L197.27 165.941Z" fill="black"/>
<path d="M267.269 135.304L287.309 158.208" stroke="#BF00FF" stroke-width="1.90861"/>
<path d="M294.944 163.933L314.984 186.837" stroke="#BF00FF" stroke-width="1.90861"/>
<path d="M293.702 158.122L313.84 135.304" stroke="#BF00FF" stroke-width="1.90861"/>
<path d="M266.981 186.751L287.119 163.933" stroke="#BF00FF" stroke-width="1.90861"/>
</svg>
